<svg width="752" height="1050" viewBox="0 0 752 1050" fill="none" xmlns="http://www.w3.org/2000/svg">
<path d="M-19.6457 913.603C-105.624 827.447 -153.747 711.091 -153.499 589.904C-153.251 468.475 -104.459 352.089 -17.8041 266.229C39.7563 209.19 126.255 164.046 223.675 128.421C321.086 92.7998 429.372 66.7109 530.467 47.7579C631.561 28.8053 725.453 16.9904 794.072 9.91373C828.381 6.37542 856.371 4.02172 875.784 2.55264C885.49 1.81809 893.052 1.30471 898.186 0.974984C900.754 0.81012 902.714 0.691171 904.033 0.613449C904.656 0.576682 905.136 0.549142 905.469 0.53033C905.45 0.859774 905.422 1.33379 905.385 1.94873C905.307 3.25534 905.187 5.19816 905.021 7.74222C904.688 12.8304 904.17 20.3234 903.429 29.9416C901.946 49.1781 899.571 76.9148 896 110.913C888.859 178.911 876.936 271.952 857.81 372.13C838.684 472.309 812.357 579.614 776.41 676.142C740.46 772.679 694.905 858.394 637.345 915.433C495.164 1056.33 283.588 1085.89 111.589 1005.44C155.498 766.909 281.623 550.884 468.424 394.27L467.875 393.442C251.358 504.329 77.8389 690.594 -19.6457 913.603Z" stroke="#2CC964" stroke-opacity="0.15"/>
</svg>
