<svg width="403" height="59" viewBox="0 0 403 59" fill="none" xmlns="http://www.w3.org/2000/svg">
<path d="M-1293.31 1L-1319 58M-1267.63 1L-1293.31 58M-1241.94 1L-1267.63 58M-1216.25 1L-1241.94 58M-1190.57 1L-1216.25 58M-1164.88 1L-1190.57 58M-1139.19 1L-1164.88 58M-1113.51 1L-1139.19 58M-1087.82 1L-1113.51 58M-1062.13 1L-1087.82 58M-1036.45 1L-1062.13 58M-1010.76 1L-1036.45 58M-985.075 1L-1010.76 58M-959.388 1L-985.075 58M-933.701 1L-959.388 58M-908.015 1L-933.701 58M-882.328 1L-908.015 58M-856.642 1L-882.328 58M-830.955 1L-856.642 58M-805.269 1L-830.955 58M-779.582 1L-805.269 58M-753.896 1L-779.582 58M-728.209 1L-753.896 58M-702.522 1L-728.209 58M-676.836 1L-702.522 58M-651.149 1L-676.836 58M-625.463 1L-651.149 58M-599.776 1L-625.463 58M-574.09 1L-599.776 58M-548.403 1L-574.09 58M-522.716 1L-548.403 58M-497.03 1L-522.716 58M-471.343 1L-497.03 58M-445.657 1L-471.343 58M-419.97 1L-445.657 58M-394.284 1L-419.97 58M-368.597 1L-394.284 58M-342.91 1L-368.597 58M-317.224 1L-342.91 58M-291.537 1L-317.224 58M-265.851 1L-291.537 58M-240.164 1L-265.851 58M-214.478 1L-240.164 58M-188.791 1L-214.478 58M-163.104 1L-188.791 58M-137.418 1L-163.104 58M-111.731 1L-137.418 58M-86.0447 1L-111.731 58M-60.3582 1L-86.0447 58M-34.6716 1L-60.3582 58M-8.98503 1L-34.6716 58M16.7015 1L-8.98503 58M42.3881 1L16.7015 58M68.0747 1L42.3881 58M93.7612 1L68.0747 58M119.448 1L93.7612 58M145.134 1L119.448 58M170.821 1L145.134 58M196.508 1L170.821 58M222.194 1L196.508 58M247.881 1L222.194 58M273.567 1L247.881 58M299.254 1L273.567 58M324.94 1L299.254 58M350.627 1L324.94 58M376.313 1L350.627 58M402 1L376.313 58" stroke="#2CC964"/>
</svg>
