<svg width="461" height="59" viewBox="0 0 461 59" fill="none" xmlns="http://www.w3.org/2000/svg">
<path d="M26.6866 1L1 58M52.3731 1L26.6866 58M78.0597 1L52.3731 58M103.746 1L78.0597 58M129.433 1L103.746 58M155.119 1L129.433 58M180.806 1L155.119 58M206.493 1L180.806 58M232.179 1L206.493 58M257.866 1L232.179 58M283.552 1L257.866 58M309.239 1L283.552 58M334.925 1L309.239 58M360.612 1L334.925 58M386.299 1L360.612 58M411.985 1L386.299 58M437.672 1L411.985 58M463.358 1L437.672 58M489.045 1L463.358 58M514.731 1L489.045 58M540.418 1L514.731 58M566.104 1L540.418 58M591.791 1L566.104 58M617.478 1L591.791 58M643.164 1L617.478 58M668.851 1L643.164 58M694.537 1L668.851 58M720.224 1L694.537 58M745.91 1L720.224 58M771.597 1L745.91 58M797.284 1L771.597 58M822.97 1L797.284 58M848.657 1L822.97 58M874.343 1L848.657 58M900.03 1L874.343 58M925.716 1L900.03 58M951.403 1L925.716 58M977.09 1L951.403 58M1002.78 1L977.09 58M1028.46 1L1002.78 58M1054.15 1L1028.46 58M1079.84 1L1054.15 58M1105.52 1L1079.84 58M1131.21 1L1105.52 58M1156.9 1L1131.21 58M1182.58 1L1156.9 58M1208.27 1L1182.58 58M1233.96 1L1208.27 58M1259.64 1L1233.96 58M1285.33 1L1259.64 58M1311.01 1L1285.33 58M1336.7 1L1311.01 58M1362.39 1L1336.7 58M1388.07 1L1362.39 58M1413.76 1L1388.07 58M1439.45 1L1413.76 58M1465.13 1L1439.45 58M1490.82 1L1465.13 58M1516.51 1L1490.82 58M1542.19 1L1516.51 58M1567.88 1L1542.19 58M1593.57 1L1567.88 58M1619.25 1L1593.57 58M1644.94 1L1619.25 58M1670.63 1L1644.94 58M1696.31 1L1670.63 58M1722 1L1696.31 58" stroke="#2CC964"/>
</svg>
