<svg width="1701" height="1327" viewBox="0 0 1701 1327" fill="none" xmlns="http://www.w3.org/2000/svg">
<path d="M220.776 1103.35C79.2918 961.633 0.0944647 770.139 0.501562 570.69C0.909156 370.997 81.0824 179.599 223.469 38.4011C318.058 -55.4084 460.179 -129.635 620.203 -188.202C780.219 -246.766 958.092 -289.655 1124.15 -320.811C1290.2 -351.968 1444.42 -371.391 1557.13 -383.024C1613.48 -388.841 1659.46 -392.71 1691.35 -395.125C1707.29 -396.332 1719.71 -397.176 1728.15 -397.719C1732.36 -397.99 1735.58 -398.185 1737.75 -398.313C1738.83 -398.377 1739.65 -398.424 1740.2 -398.455L1740.47 -398.47L1740.45 -398.208C1740.42 -397.664 1740.38 -396.852 1740.31 -395.777C1740.18 -393.629 1739.99 -390.435 1739.71 -386.252C1739.17 -377.887 1738.31 -365.569 1737.1 -349.757C1734.66 -318.133 1730.76 -272.536 1724.9 -216.646C1713.17 -104.865 1693.58 48.0867 1662.17 212.771C1630.75 377.457 1587.51 553.864 1528.46 712.562C1469.4 871.267 1394.56 1012.22 1299.97 1106.03C1066.28 1337.79 718.514 1386.38 435.856 1253.93C507.948 861.668 715.163 506.403 1022.1 248.859L1021.55 248.031C665.854 430.345 380.826 736.641 220.776 1103.35Z" stroke="#2CC964" stroke-opacity="0.15"/>
</svg>
