<svg width="1701" height="717" viewBox="0 0 1701 717" fill="none" xmlns="http://www.w3.org/2000/svg">
<path d="M220.776 1502.35C79.2918 1360.63 0.0944647 1169.14 0.501562 969.69C0.909156 769.997 81.0824 578.599 223.469 437.401C318.058 343.592 460.179 269.365 620.203 210.798C780.219 152.234 958.092 109.345 1124.15 78.1885C1290.2 47.032 1444.42 27.6094 1557.13 15.9761C1613.48 10.1594 1659.46 6.29014 1691.35 3.87506C1707.29 2.66751 1719.71 1.82353 1728.15 1.28144C1732.36 1.0104 1735.58 0.814837 1737.75 0.687044C1738.83 0.623147 1739.65 0.576194 1740.2 0.54522L1740.47 0.530222L1740.45 0.791682C1740.42 1.33576 1740.38 2.14848 1740.31 3.22266C1740.18 5.37102 1739.99 8.56523 1739.71 12.7478C1739.17 21.1129 1738.31 33.4313 1737.1 49.2431C1734.66 80.8668 1730.76 126.464 1724.9 182.354C1713.17 294.135 1693.58 447.087 1662.17 611.771C1630.75 776.457 1587.51 952.864 1528.46 1111.56C1469.4 1270.27 1394.56 1411.22 1299.97 1505.03C1066.28 1736.79 718.514 1785.38 435.856 1652.93C507.948 1260.67 715.163 905.403 1022.1 647.859L1021.55 647.031C665.854 829.345 380.826 1135.64 220.776 1502.35Z" stroke="#2CC964" stroke-opacity="0.15"/>
</svg>
