<svg width="28" height="23" viewBox="0 0 28 23" fill="none" xmlns="http://www.w3.org/2000/svg">
<path fill-rule="evenodd" clip-rule="evenodd" d="M14 0C15.197 0 16.4248 0.0316251 17.6148 0.0833751L19.0204 0.152375L20.3658 0.234313L21.6258 0.322L22.7766 0.414C24.0257 0.511594 25.2011 1.05862 26.0959 1.95874C26.9908 2.85886 27.5475 4.05432 27.6682 5.33456L27.7242 5.9455L27.8292 7.25362C27.9272 8.60919 28 10.0869 28 11.5C28 12.9131 27.9272 14.3908 27.8292 15.7464L27.7242 17.0545L27.6682 17.6654C27.5475 18.9459 26.9905 20.1416 26.0954 21.0417C25.2003 21.9418 24.0245 22.4887 22.7752 22.586L21.6272 22.6766L20.3672 22.7657L19.0204 22.8476L17.6148 22.9166C16.4106 22.9702 15.2054 22.998 14 23C12.7946 22.998 11.5894 22.9702 10.3852 22.9166L8.9796 22.8476L7.6342 22.7657L6.3742 22.6766L5.2234 22.586C3.97434 22.4884 2.79888 21.9414 1.90406 21.0413C1.00924 20.1411 0.452467 18.9457 0.3318 17.6654L0.2758 17.0545L0.1708 15.7464C0.0641658 14.3335 0.0071955 12.9171 0 11.5C0 10.0869 0.0728 8.60919 0.1708 7.25362L0.2758 5.9455L0.3318 5.33456C0.45242 4.05454 1.009 2.85926 1.90353 1.95918C2.79806 1.05909 3.97319 0.511917 5.222 0.414L6.3714 0.322L7.6314 0.234313L8.9782 0.152375L10.3838 0.0833751C11.5885 0.0297953 12.7942 0.00199752 14 0ZM11.2 8.01406V14.9859C11.2 15.6501 11.9 16.0641 12.46 15.7334L18.34 12.2475C18.4679 12.1719 18.5742 12.063 18.6481 11.9317C18.722 11.8005 18.7609 11.6516 18.7609 11.5C18.7609 11.3484 18.722 11.1995 18.6481 11.0683C18.5742 10.937 18.4679 10.8281 18.34 10.7525L12.46 7.268C12.3323 7.19228 12.1874 7.15242 12.0399 7.15245C11.8924 7.15247 11.7475 7.19237 11.6198 7.26814C11.4921 7.3439 11.386 7.45286 11.3123 7.58406C11.2386 7.71525 11.1999 7.86405 11.2 8.0155V8.01406Z" fill="#2CC964"/>
</svg>
